<svg xmlns="http://www.w3.org/2000/svg" width="23.52" height="23.52" viewBox="0 0 23.52 23.52">
    <g>
        <g>
            <path fill="#b9bbbd" d="M798.232 323.76h-16.465a3.465 3.465 0 0 1-3.527-3.528v-16.464a3.465 3.465 0 0 1 3.527-3.528h16.465a3.465 3.465 0 0 1 3.528 3.528v16.464a3.465 3.465 0 0 1-3.528 3.528zm-16.465-21.168a1.113 1.113 0 0 0-1.175 1.176v16.464a1.113 1.113 0 0 0 1.175 1.176h16.465a1.114 1.114 0 0 0 1.176-1.176v-16.464a1.114 1.114 0 0 0-1.176-1.176z" transform="translate(-778.24 -300.24)"/>
        </g>
    </g>
</svg>
