<svg xmlns="http://www.w3.org/2000/svg" width="23.52" height="23.52" viewBox="0 0 23.52 23.52">
    <defs>
        <style>
            .cls-1{fill:#4d79f6}
        </style>
    </defs>
    <g id="_090-check-mark_1" transform="translate(-778.24 -426.24)">
        <g id="Group">
            <path id="Vector" d="M798.232 449.76h-16.465a3.464 3.464 0 0 1-3.527-3.528v-16.464a3.465 3.465 0 0 1 3.527-3.528h16.465a3.465 3.465 0 0 1 3.528 3.528v16.464a3.465 3.465 0 0 1-3.528 3.528zm-16.465-21.168a1.113 1.113 0 0 0-1.175 1.176v16.464a1.113 1.113 0 0 0 1.175 1.176h16.465a1.114 1.114 0 0 0 1.176-1.176v-16.464a1.114 1.114 0 0 0-1.176-1.176z" class="cls-1"/>
            <path id="Vector-2" d="M787.573 439.7l-3.154-3.1-1.7 1.668 4.853 4.766 9.706-9.532-1.7-1.668z" class="cls-1"/>
        </g>
    </g>
</svg>
