<svg xmlns="http://www.w3.org/2000/svg" width="19.31" height="19.31" viewBox="0 0 19.31 19.31">
    <path fill="#4d79f6" d="M16.9 19.31H2.414A2.413 2.413 0 0 1 0 16.9V6.275a2.415 2.415 0 0 1 2.414-2.413h2.414V2.414A2.413 2.413 0 0 1 7.241 0h4.828a2.4 2.4 0 0 1 1.706.708 2.427 2.427 0 0 1 .708 1.706v1.448H16.9a2.4 2.4 0 0 1 1.7.708 2.43 2.43 0 0 1 .707 1.706V16.9a2.433 2.433 0 0 1-.707 1.7 2.4 2.4 0 0 1-1.7.71zM1.931 10.029V16.9a.483.483 0 0 0 .483.483H16.9a.485.485 0 0 0 .483-.483v-6.8l-7.431 2.405a.976.976 0 0 1-.3.047.957.957 0 0 1-.306-.05l-7.415-2.473zm.483-4.236a.483.483 0 0 0-.483.482v1.719l7.727 2.576 7.721-2.5V6.275a.477.477 0 0 0-.142-.341.486.486 0 0 0-.341-.142zm4.827-3.862a.483.483 0 0 0-.483.483v1.448h5.793V2.414a.485.485 0 0 0-.482-.483z"/>
</svg>
