<svg xmlns="http://www.w3.org/2000/svg" width="19.341" height="17" viewBox="0 0 19.341 17">
    <defs>
        <style>
            .cls-1{fill:#5d83f6}
        </style>
    </defs>
    <g id="Group_3446" transform="translate(-1189.787 -460.6)">
        <path id="Path_9976" d="M.566 160.055h14.809a.568.568 0 0 0 .363-.131c.142-.119 3.387-2.91 3.585-8.936H3.418c-.2 5.469-3.185 8.04-3.216 8.066a.567.567 0 0 0 .364 1z" class="cls-1" transform="translate(1189.787 314.145)"/>
        <path id="Path_9977" d="M106.314 32.121h-2.834v-.567a.567.567 0 1 0-1.133 0v.567h-2.871v-.567a.567.567 0 1 0-1.133 0v.567h-2.834v-.567a.567.567 0 0 0-1.133 0v.567h-2.833a.561.561 0 0 0-.567.567v1.7h15.9v-1.7a.561.561 0 0 0-.562-.567z" class="cls-1" transform="translate(1102.248 429.612)"/>
        <path id="Path_9978" fill="#aabef8" d="M104.005 302.1a1.705 1.705 0 0 1-1.091.4H90.977v1.7a.566.566 0 0 0 .567.567h14.771a.566.566 0 0 0 .567-.567v-6.352a11.231 11.231 0 0 1-2.877 4.252z" transform="translate(1102.247 172.838)"/>
    </g>
</svg>
