<svg xmlns="http://www.w3.org/2000/svg" width="21" height="24.5" viewBox="0 0 21 24.5">
    <defs>
        <style>
            .cls-1{fill:#a3a3a3}
        </style>
    </defs>
    <g id="Group_3443" transform="translate(-445.5 -535.167)">
        <path id="Vector" d="M461.833 427.667h-11.666a3.477 3.477 0 0 1-2.475-1.025 3.524 3.524 0 0 1-1.025-2.475v-14a1.166 1.166 0 1 1 0-2.333h4.667v-1.166a3.477 3.477 0 0 1 1.025-2.475 3.521 3.521 0 0 1 2.475-1.025h2.334a3.5 3.5 0 0 1 3.5 3.5v1.166h4.667A1.168 1.168 0 0 1 466.5 409a1.175 1.175 0 0 1-.342.825 1.158 1.158 0 0 1-.824.341v14a3.524 3.524 0 0 1-1.025 2.475 3.48 3.48 0 0 1-2.476 1.026zM449 410.166v14a1.175 1.175 0 0 0 .342.825 1.159 1.159 0 0 0 .825.341h11.667a1.166 1.166 0 0 0 1.166-1.166v-14h-14zm5.834-4.666a1.159 1.159 0 0 0-.824.342 1.176 1.176 0 0 0-.343.825v1.166h4.667v-1.166a1.168 1.168 0 0 0-1.166-1.167z" class="cls-1" transform="translate(0 132)"/>
        <path id="Vector-2" d="M452.5 423a1.167 1.167 0 0 0 1.166-1.167v-8.167a1.167 1.167 0 1 0-2.333 0v8.167A1.167 1.167 0 0 0 452.5 423z" class="cls-1" transform="translate(0 132)"/>
        <path id="Vector-3" d="M459.5 423a1.167 1.167 0 0 0 1.166-1.167v-8.167a1.167 1.167 0 0 0-2.333 0v8.167A1.168 1.168 0 0 0 459.5 423z" class="cls-1" transform="translate(0 132)"/>
    </g>
</svg>
