<svg xmlns="http://www.w3.org/2000/svg" width="18" height="16" viewBox="0 0 18 16">
    <path fill="#4d79f6" d="M15.3 16H2.7a2.712 2.712 0 0 1-1.924-.767 2.644 2.644 0 0 1-.776-1.9V2.666a2.643 2.643 0 0 1 .776-1.9A2.712 2.712 0 0 1 2.7 0h12.6a2.712 2.712 0 0 1 1.924.766 2.643 2.643 0 0 1 .776 1.9v10.667a2.644 2.644 0 0 1-.776 1.9A2.712 2.712 0 0 1 15.3 16zM1.8 3.91v9.422a.847.847 0 0 0 .9.889h12.6a.847.847 0 0 0 .9-.889V3.91L9.63 10.4a.876.876 0 0 1-1.26 0zm.9-2.133a.677.677 0 0 0-.225.044.678.678 0 0 1-.225.044L9 8.533l6.66-6.666a.327.327 0 0 1-.118-.033.6.6 0 0 0-.242-.056z"/>
</svg>
