<svg xmlns="http://www.w3.org/2000/svg" width="874" height="184.216" viewBox="0 0 874 184.216">
    <defs>
        <filter id="dot" width="47" height="47" x="458" y="74.586" filterUnits="userSpaceOnUse">
            <feOffset dy="4"/>
            <feGaussianBlur result="blur" stdDeviation="4"/>
            <feFlood flood-opacity=".039"/>
            <feComposite in2="blur" operator="in"/>
            <feComposite in="SourceGraphic"/>
        </filter>
        <filter id="background" width="141.979" height="111.103" x="385" y="0" filterUnits="userSpaceOnUse">
            <feOffset dy="8"/>
            <feGaussianBlur result="blur-2" stdDeviation="8"/>
            <feFlood flood-opacity=".059"/>
            <feComposite in2="blur-2" operator="in"/>
            <feComposite in="SourceGraphic"/>
        </filter>
        <style>
            .cls-1{fill:#f3f2f7}
        </style>
    </defs>
    <g id="Group_3452" transform="translate(-467 -570.245)">
        <path id="border" d="M0 0H874V1H0z" class="cls-1" transform="translate(467 582.081)"/>
        <path id="border-2" d="M0 0H874V1H0z" class="cls-1" transform="translate(467 636.581)"/>
        <path id="border-3" d="M0 0H874V1H0z" class="cls-1" transform="translate(467 691.081)"/>
        <path id="selector" fill="#f3f2f7" d="M0 0H87V163H0z" opacity="0.369" transform="translate(905 582.831)"/>
        <path id="Vector_1" fill="none" stroke="#4d79f6" stroke-width="4px" d="M482 613.986l91.086-37.748a34 34 0 0 1 33.682 4.41l5.689 4.352a34 34 0 0 0 41.094.178l33.487-25.172a34 34 0 0 1 49.11 8.919l34.173 53.675a34 34 0 0 0 56.721.97l52.519-76.583a34 34 0 0 1 50.779-6.049l55.988 50.364a34 34 0 0 0 47.457-1.933l14.107-14.937 47.508-51.215a34 34 0 0 1 50.611.844l22.146 25.532a25.018 25.018 0 0 0 35.525 2.3 25.019 25.019 0 0 1 39.354 8.238l3.689 8.017c11.287 24.53 46.166 24.475 57.375-.091L1342 485" opacity="0.7" transform="translate(-11 97.831)"/>
        <path id="Vector_2" fill="none" stroke="#ffbb54" stroke-width="4px" d="M482 629.791l95.953-27.682a34 34 0 0 1 25.412 2.661l13.727 7.314a34 34 0 0 0 31.751.118l44.379-23.223a34 34 0 0 1 40.854 7.179l43.347 47.4a34 34 0 0 0 45.108 4.537l62.944-45.846a34 34 0 0 1 37.446-1.711l49.7 29.671a34 34 0 0 0 36.813-1.261l38.456-26.688 52.177-39.156a34 34 0 0 1 41.689.678l25.927 20.808a30.963 30.963 0 0 0 35.678 2.179 30.963 30.963 0 0 1 42.129 9.254l1.591 2.406a33.935 33.935 0 0 0 56.691-.108L1342 540" opacity="0.35" transform="translate(-11 97.831)"/>
        <path id="Vector_2-2" fill="none" stroke="#ff5454" stroke-width="4px" d="M1342 564.821l-95.953 27.679a34 34 0 0 1-25.412-2.661l-13.727-7.314a34 34 0 0 0-31.751-.118l-44.379 23.223a34 34 0 0 1-40.854-7.179l-43.347-47.4a34 34 0 0 0-45.108-4.537l-62.944 45.846a34 34 0 0 1-37.446 1.711l-49.7-29.671a34 34 0 0 0-36.813 1.261l-38.456 26.688-52.177 39.156a34 34 0 0 1-41.689-.678l-25.927-20.808a30.963 30.963 0 0 0-35.678-2.179 30.963 30.963 0 0 1-42.129-9.254l-1.591-2.406a33.935 33.935 0 0 0-56.691.108L482 654.612" opacity="0.35" transform="translate(-11 37.831)"/>
        <g filter="url(#dot)" transform="translate(467 570.25)">
            <g id="dot-2" fill="#00a389" stroke="#fff" stroke-width="4px" transform="translate(474 86.59)">
                <circle cx="7.5" cy="7.5" r="7.5" stroke="none"/>
                <circle cx="7.5" cy="7.5" r="9.5" fill="none"/>
            </g>
        </g>
        <g filter="url(#background)" transform="translate(467 570.25)">
            <path id="background-2" fill="#fff" d="M828 474.457c0-4.119 2.55-7.458 5.7-7.458h82.588c3.146 0 5.7 3.339 5.7 7.458v41.016c0 4.119-2.55 7.457-5.7 7.457h-7.731l-9.217 7.17-11.011-7.171H833.7c-3.146 0-5.7-3.339-5.7-7.457z" transform="translate(-419 -451)"/>
        </g>
        <text id="_383" fill="#464255" font-family="GoogleSans-Medium, Google Sans" font-size="16px" font-weight="500" transform="translate(910 610.831)">
            <tspan x="0" y="0">383</tspan>
        </text>
        <text id="Monthly" fill="#00a389" font-family="GoogleSans-Regular, Google Sans" font-size="12px" transform="translate(901 627.831)">
            <tspan x="0" y="0">Monthly</tspan>
        </text>
    </g>
</svg>
