<svg xmlns="http://www.w3.org/2000/svg" width="28.573" height="22.714" viewBox="0 0 28.573 22.714">
    <g fill="#5d83f6">
        <path d="M209.373 123.825a1.116 1.116 0 0 0-1.418-.133c-1.67 1.138-10.047 6.863-10.947 7.763a3.348 3.348 0 0 0 4.735 4.736c.9-.9 6.624-9.277 7.763-10.947a1.116 1.116 0 0 0-.133-1.419zm-9.208 10.787a1.116 1.116 0 0 1-1.579-1.578c.35-.346 2.728-2.042 5.654-4.076-2.034 2.926-3.73 5.304-4.075 5.654z" opacity="0.9" transform="translate(-185.089 -119.536)"/>
        <path d="M5.147 71.977l-1.378.672a12 12 0 0 1-.752-10.143l1.579.757a1.116 1.116 0 1 0 .965-2.013L4 60.5a12.07 12.07 0 0 1 9.168-5.721v1.679a1.116 1.116 0 0 0 2.232 0v-1.68a11.916 11.916 0 0 1 3.838 1.011 1.116 1.116 0 1 0 .918-2.035A14.275 14.275 0 0 0 2.421 74.717a1.116 1.116 0 0 0 1.417.383l2.288-1.116a1.116 1.116 0 1 0-.979-2.006z" opacity="0.6" transform="translate(0 -52.499)"/>
        <path d="M395.544 192.151a1.116 1.116 0 1 0-2.035.918 12.015 12.015 0 0 1-.48 10.826l-1.439-.685a1.116 1.116 0 1 0-.96 2.015l2.344 1.116a1.116 1.116 0 0 0 1.408-.387 14.253 14.253 0 0 0 1.161-13.8z" transform="translate(-368.23 -183.737)"/>
    </g>
</svg>
