<svg xmlns="http://www.w3.org/2000/svg" width="16" height="16" viewBox="0 0 16 16">
    <path fill="#4d79f6" d="M15.11 16a15.036 15.036 0 0 1-5.782-1.15 15.034 15.034 0 0 1-4.9-3.275 15.044 15.044 0 0 1-3.276-4.9A15.035 15.035 0 0 1 0 .889.89.89 0 0 1 .89 0h3.555a.884.884 0 0 1 .629.261.894.894 0 0 1 .26.628v3.556a.882.882 0 0 1-.066.341.894.894 0 0 1-.192.29L3.3 6.854l-.079.062a13.379 13.379 0 0 0 5.866 5.866l.062-.08 1.777-1.778a.884.884 0 0 1 .625-.258h3.559a.889.889 0 0 1 .89.889v3.555a.884.884 0 0 1-.261.629.9.9 0 0 1-.629.261zm-3.191-3.555l-1.075 1.1a13.349 13.349 0 0 0 3.377.676v-1.776h-2.3zM1.778 1.778a13.335 13.335 0 0 0 .7 3.378L3.556 4.08v-2.3z"/>
</svg>
