<svg xmlns="http://www.w3.org/2000/svg" width="19.847" height="19.833" viewBox="0 0 19.847 19.833">
    <defs>
        <style>
            .cls-1{fill:#a3a3a3}
        </style>
    </defs>
    <g id="Group_3442" transform="translate(-446.069 -466.083)">
        <path id="Vector" d="M465.616 346.469a1.166 1.166 0 0 0-1.647-.086l-10.844 9.759-5.051-5.051a1.167 1.167 0 1 0-1.65 1.65l5.834 5.833a1.166 1.166 0 0 0 1.605.042l11.667-10.5a1.167 1.167 0 0 0 .086-1.647z" class="cls-1" transform="translate(0 120)"/>
        <path id="Vector-2" d="M463.969 353.383l-10.844 9.759-5.051-5.051a1.167 1.167 0 0 0-1.65 1.65l5.834 5.833a1.167 1.167 0 0 0 1.605.042l11.667-10.5a1.167 1.167 0 0 0-1.561-1.734z" class="cls-1" transform="translate(0 120)"/>
    </g>
</svg>
