<svg xmlns="http://www.w3.org/2000/svg" width="53" height="54" viewBox="0 0 53 54">
    <defs>
        <style>
            .cls-2{fill:#fff}
        </style>
    </defs>
    <g id="Group_3451" transform="translate(-1304 -251.831)">
        <ellipse id="Ellipse_146" cx="26.5" cy="27" fill="#7540ee" rx="26.5" ry="27" transform="translate(1304 251.831)"/>
        <g id="Group_3382" transform="translate(1311.547 269.227)">
            <path id="Path_9884" d="M22.194 149.115a4.433 4.433 0 1 0-4.433-4.433 4.354 4.354 0 0 0 4.433 4.433zm0 2.955c-2.955 0-8.865 1.478-8.865 4.433v2.955H31.06V156.5c0-2.952-5.911-4.429-8.866-4.429z" class="cls-2" transform="translate(-4.463 -140.25)"/>
            <path id="Path_9886" d="M8.865 147.383H5.541v-3.325H3.325v3.325H0v2.217h3.325v3.325h2.216V149.6h3.324z" class="cls-2" transform="translate(0 -139.402)"/>
            <path id="Path_9885" fill="#fff" d="M33.89 149.115a4.433 4.433 0 0 0 0-8.865c-.443 0-.887.148-1.33.148a7.569 7.569 0 0 1 0 8.57c.44 0 .886.147 1.33.147zm2.364 3.251a5.645 5.645 0 0 1 2.069 4.137v2.955h4.433V156.5c-.001-2.213-3.547-3.691-6.502-4.134z" opacity="0.5" transform="translate(-9.547 -140.25)"/>
        </g>
    </g>
</svg>
