<svg xmlns="http://www.w3.org/2000/svg" width="16" height="272" viewBox="0 0 16 272">
    <defs>
        <style>
            .cls-2{fill:#f3f2f7}.cls-3,.cls-4{stroke:none}.cls-4{fill:#5569fa}
        </style>
    </defs>
    <g id="timeline" transform="translate(-1475 -1138)">
        <path id="line" fill="#b9bbbd" d="M0 0H1V261H0z" transform="translate(1482 1146)"/>
        <g id="dot" class="cls-2">
            <path d="M1483 1152.5c-1.74 0-3.372-.675-4.599-1.902-1.226-1.226-1.901-2.86-1.901-4.598 0-1.74.675-3.372 1.901-4.599 1.227-1.226 2.86-1.901 4.599-1.901 1.739 0 3.372.675 4.598 1.901 1.226 1.227 1.902 2.86 1.902 4.599 0 1.739-.676 3.372-1.902 4.598-1.226 1.227-2.86 1.902-4.598 1.902z" class="cls-3"/>
            <path d="M1483 1141c-1.339 0-2.595.52-3.538 1.462-.943.943-1.462 2.2-1.462 3.538 0 1.338.52 2.595 1.462 3.538.943.943 2.2 1.462 3.538 1.462 1.338 0 2.594-.52 3.537-1.462.943-.943 1.463-2.2 1.463-3.538 0-1.338-.52-2.595-1.463-3.538-.943-.943-2.199-1.462-3.537-1.462m0-3c4.424 0 8 3.576 8 8 0 4.424-3.576 8-8 8-4.425 0-8-3.576-8-8 0-4.424 3.575-8 8-8z" class="cls-4"/>
        </g>
        <g id="dot-2" class="cls-2">
            <path d="M1483 1293.5c-1.74 0-3.372-.675-4.599-1.902-1.226-1.226-1.901-2.86-1.901-4.598 0-1.74.675-3.372 1.901-4.599 1.227-1.226 2.86-1.901 4.599-1.901 1.739 0 3.372.675 4.598 1.902 1.226 1.226 1.902 2.859 1.902 4.598 0 1.739-.676 3.372-1.902 4.598s-2.86 1.902-4.598 1.902z" class="cls-3"/>
            <path d="M1483 1282c-1.339 0-2.595.52-3.538 1.462-.943.943-1.462 2.2-1.462 3.538 0 1.338.52 2.595 1.462 3.538.943.943 2.2 1.462 3.538 1.462 1.338 0 2.594-.52 3.537-1.463.943-.943 1.463-2.199 1.463-3.537s-.52-2.595-1.463-3.538c-.943-.943-2.199-1.462-3.537-1.462m0-3c4.424 0 8 3.576 8 8 0 4.424-3.576 8-8 8-4.425 0-8-3.576-8-8 0-4.424 3.575-8 8-8z" class="cls-4"/>
        </g>
        <g id="dot-3" class="cls-2">
            <path d="M1483 1408.5c-1.74 0-3.372-.676-4.599-1.902-1.226-1.226-1.901-2.86-1.901-4.598 0-1.74.675-3.372 1.901-4.599 1.227-1.226 2.86-1.901 4.599-1.901 1.739 0 3.372.675 4.598 1.901 1.226 1.227 1.902 2.86 1.902 4.599 0 1.739-.676 3.372-1.902 4.598s-2.86 1.902-4.598 1.902z" class="cls-3"/>
            <path d="M1483 1397c-1.339 0-2.595.519-3.538 1.462-.943.943-1.462 2.2-1.462 3.538 0 1.338.52 2.595 1.462 3.538.943.942 2.2 1.462 3.538 1.462 1.338 0 2.594-.52 3.537-1.463.943-.943 1.463-2.199 1.463-3.537 0-1.339-.52-2.595-1.463-3.538-.943-.943-2.2-1.462-3.537-1.462m0-3c4.424 0 8 3.576 8 8 0 4.424-3.576 8-8 8-4.425 0-8-3.576-8-8 0-4.424 3.575-8 8-8z" class="cls-4"/>
        </g>
    </g>
</svg>
