<svg xmlns="http://www.w3.org/2000/svg" width="53" height="54" viewBox="0 0 53 54">
    <g transform="translate(-602 -251.831)">
        <ellipse cx="26.5" cy="27" fill="#4d79f6" rx="26.5" ry="27" transform="translate(602 251.831)"/>
        <path fill="#fff" d="M105.731 13.531A13.531 13.531 0 1 0 92.2 27.063a13.547 13.547 0 0 0 13.531-13.532zM92.2 3.052a10.49 10.49 0 0 1 9.174 15.539 13.446 13.446 0 0 0-4.5-2.757 6.026 6.026 0 1 0-9.345 0 13.446 13.446 0 0 0-4.5 2.757A10.489 10.489 0 0 1 92.2 3.052zm-2.976 8.979a2.976 2.976 0 1 1 2.976 2.976 2.979 2.979 0 0 1-2.976-2.976zm-4.335 9a10.474 10.474 0 0 1 14.622 0 10.459 10.459 0 0 1-14.622 0z" transform="translate(536.011 264.957)"/>
    </g>
</svg>
