<svg xmlns="http://www.w3.org/2000/svg" width="862.227" height="117.727" viewBox="0 0 862.227 117.727">
    <path fill="none" stroke="#ff5454" stroke-width="4px" d="M1342 564.821l-95.953 27.679a34 34 0 0 1-25.412-2.661l-13.727-7.314a34 34 0 0 0-31.751-.118l-44.379 23.223a34 34 0 0 1-40.854-7.179l-43.347-47.4a34 34 0 0 0-45.108-4.537l-62.944 45.846a34 34 0 0 1-37.446 1.711l-49.7-29.671a34 34 0 0 0-36.813 1.261l-38.456 26.688-52.177 39.156a34 34 0 0 1-41.689-.678l-25.927-20.808a30.963 30.963 0 0 0-35.678-2.179 30.963 30.963 0 0 1-42.129-9.254l-1.591-2.406a33.935 33.935 0 0 0-56.691.108L482 654.612" opacity="0.35" transform="translate(-480.327 -537.981)"/>
</svg>
