<svg xmlns="http://www.w3.org/2000/svg" width="862.586" height="156.176" viewBox="0 0 862.586 156.176">
    <path fill="none" stroke="#4d79f6" stroke-width="4px" d="M482 613.986l91.086-37.748a34 34 0 0 1 33.682 4.41l5.689 4.352a34 34 0 0 0 41.094.178l33.487-25.172a34 34 0 0 1 49.11 8.919l34.173 53.675a34 34 0 0 0 56.721.97l52.519-76.583a34 34 0 0 1 50.779-6.049l55.988 50.364a34 34 0 0 0 47.457-1.933l14.107-14.937 47.508-51.215a34 34 0 0 1 50.611.844l22.146 25.532a25.018 25.018 0 0 0 35.525 2.3 25.019 25.019 0 0 1 39.354 8.238l3.689 8.017c11.287 24.53 46.166 24.475 57.375-.091L1342 485" opacity="0.7" transform="translate(-481.234 -484.17)"/>
</svg>
